<svg width="24" height="24" viewBox="0 0 24 24" fill="none" xmlns="http://www.w3.org/2000/svg">
<path d="M21.93 16.56C21.79 16.18 21.5 16 21.22 15.81C21.17 15.78 21.11 15.75 21.07 15.73C21 15.68 20.89 15.64 20.8 15.59C19.86 15.09 19.12 14.46 18.61 13.72C18.47 13.5 18.35 13.29 18.24 13.06C18.2 12.93 18.2 12.86 18.23 12.8C18.26 12.75 18.3 12.7 18.35 12.67C18.5 12.56 18.68 12.46 18.79 12.38C19 12.25 19.15 12.15 19.25 12.08C19.64 11.81 19.91 11.5 20.08 11.2C20.32 10.75 20.35 10.22 20.16 9.75002C19.91 9.08002 19.27 8.66002 18.5 8.66002C18.34 8.66002 18.18 8.68002 18 8.71002C18 8.72002 17.94 8.73002 17.9 8.74002C17.9 8.28002 17.89 7.80002 17.85 7.32002C17.71 5.64002 17.12 4.76002 16.5 4.06002C16.11 3.62002 15.65 3.24002 15.14 2.95002C14.21 2.42002 13.15 2.15002 12 2.15002C10.85 2.15002 9.79997 2.42002 8.86997 2.95002C8.34997 3.24002 7.88997 3.62002 7.49997 4.06002C6.87997 4.76002 6.29997 5.64002 6.14997 7.32002C6.10997 7.80002 6.09997 8.28002 6.10997 8.74002C6.05997 8.73002 5.99997 8.72002 5.99997 8.71002C5.81997 8.68002 5.65997 8.66002 5.49997 8.66002C4.72997 8.66002 4.08997 9.08002 3.83997 9.75002C3.64997 10.22 3.67997 10.75 3.91997 11.2C4.08997 11.5 4.35997 11.81 4.74997 12.08C4.84997 12.15 4.99997 12.25 5.20997 12.39L5.62997 12.66C5.68997 12.7 5.72997 12.75 5.76997 12.8C5.79997 12.87 5.79997 12.94 5.74997 13.07C5.64997 13.3 5.52997 13.5 5.38997 13.72C4.88997 14.45 4.17997 15.07 3.26997 15.56C2.77997 15.82 2.27997 16 2.06997 16.56C1.90997 17 1.99997 17.5 2.41997 17.91C2.56997 18.06 2.73997 18.19 2.92997 18.29C3.32997 18.5 3.74997 18.68 4.17997 18.79C4.26997 18.82 4.35997 18.85 4.42997 18.91C4.57997 19.03 4.55997 19.23 4.75997 19.5C4.85997 19.66 4.99997 19.79 5.12997 19.89C5.53997 20.18 5.99997 20.19 6.49997 20.21C6.93997 20.23 7.43997 20.25 7.99997 20.44C8.25997 20.5 8.49997 20.67 8.78997 20.85C9.49997 21.27 10.42 21.85 12 21.85C13.57 21.85 14.5 21.27 15.22 20.84C15.5 20.67 15.75 20.5 16 20.44C16.55 20.25 17.06 20.23 17.5 20.21C18 20.2 18.46 20.18 18.87 19.89C19.04 19.77 19.18 19.61 19.29 19.43C19.43 19.19 19.43 19 19.56 18.91C19.63 18.86 19.71 18.82 19.8 18.8C20.24 18.68 20.66 18.5 21.06 18.29C21.27 18.18 21.45 18.04 21.6 17.87H21.61C22 17.46 22.08 17 21.93 16.56ZM20.53 17.31C19.67 17.78 19.1 17.73 18.66 18C18.5 18.12 18.45 18.28 18.42 18.44C18.41 18.5 18.4 18.58 18.39 18.64C18.37 18.78 18.34 18.9 18.24 18.97C17.9 19.2 16.91 18.95 15.63 19.37C14.57 19.72 13.9 20.73 12 20.73C10.1 20.73 9.44997 19.73 8.36997 19.37C7.09997 18.95 6.09997 19.2 5.76997 18.97C5.49997 18.78 5.71997 18.26 5.33997 18C4.89997 17.73 4.32997 17.78 3.49997 17.31C3.18997 17.15 3.13997 17 3.17997 16.93C3.21997 16.84 3.33997 16.77 3.41997 16.73C5.06997 15.94 5.99997 14.91 6.46997 14.1C6.90997 13.38 6.99997 12.83 7.02997 12.75C7.05997 12.54 7.08997 12.38 6.85997 12.17C6.63997 11.96 5.65997 11.36 5.38997 11.17C4.92997 10.85 4.73997 10.54 4.87997 10.15C4.99997 9.88002 5.22997 9.78002 5.49997 9.78002C5.57997 9.78002 5.65997 9.79002 5.73997 9.81002C6.23997 9.91002 6.71997 10.16 6.99997 10.23C7.02997 10.24 7.05997 10.24 7.09997 10.24C7.18997 10.24 7.23997 10.21 7.26997 10.15C7.27997 10.11 7.28997 10.06 7.28997 10C7.24997 9.46002 7.17997 8.41002 7.25997 7.42002C7.29997 7.00002 7.36997 6.64002 7.45997 6.33002C7.65997 5.65002 7.99997 5.20002 8.33997 4.79002C8.58997 4.50002 9.74997 3.27002 12 3.27002C13.85 3.27002 14.96 4.11002 15.44 4.56002C15.54 4.66002 15.62 4.74002 15.66 4.79002C16.04 5.23002 16.38 5.71002 16.58 6.47002C16.65 6.74002 16.71 7.06002 16.74 7.42002C16.82 8.40002 16.75 9.46002 16.71 10C16.71 10.04 16.71 10.08 16.72 10.11C16.73 10.2 16.79 10.24 16.9 10.24C16.94 10.24 16.97 10.24 17 10.23C17.28 10.16 17.76 9.91002 18.26 9.80002C18.34 9.79002 18.42 9.78002 18.5 9.78002C18.75 9.78002 19 9.87002 19.1 10.1L19.11 10.14H19.12V10.15C19.27 10.53 19.07 10.85 18.62 11.16C18.35 11.35 17.36 11.96 17.14 12.16C16.91 12.38 16.94 12.54 16.97 12.75C17 12.85 17.18 13.8 18.08 14.86C18.63 15.5 19.42 16.17 20.58 16.73C20.65 16.76 20.74 16.81 20.79 16.87C20.82 16.92 20.84 16.96 20.83 17C20.82 17.1 20.73 17.2 20.53 17.31Z" fill="#333333"/>
</svg>
